<mxfile host="app.diagrams.net" modified="2023-12-22T06:01:14.979Z" agent="Mozilla/5.0 (X11; Ubuntu; Linux x86_64; rv:109.0) Gecko/20100101 Firefox/119.0" etag="kB8fKkKUgyrsRinBYgfK" version="22.1.11" type="device">
  <diagram name="Page-1" id="G1E-o2sUnaRfctfOdFAP">
    <mxGraphModel dx="1366" dy="766" grid="1" gridSize="10" guides="1" tooltips="1" connect="1" arrows="1" fold="1" page="1" pageScale="1" pageWidth="850" pageHeight="1100" math="0" shadow="0">
      <root>
        <mxCell id="0" />
        <mxCell id="1" parent="0" />
        <mxCell id="nMN-DpjDkvB5x4g8xDvF-12" value="" style="edgeStyle=orthogonalEdgeStyle;rounded=0;orthogonalLoop=1;jettySize=auto;html=1;" parent="1" target="nMN-DpjDkvB5x4g8xDvF-2" edge="1">
          <mxGeometry relative="1" as="geometry">
            <mxPoint x="510" y="220" as="sourcePoint" />
          </mxGeometry>
        </mxCell>
        <mxCell id="DQLROcdRZPBVzseesoQG-4" style="edgeStyle=orthogonalEdgeStyle;rounded=0;orthogonalLoop=1;jettySize=auto;html=1;exitX=0;exitY=0.5;exitDx=0;exitDy=0;entryX=1;entryY=0.5;entryDx=0;entryDy=0;" edge="1" parent="1" source="nMN-DpjDkvB5x4g8xDvF-2" target="DQLROcdRZPBVzseesoQG-2">
          <mxGeometry relative="1" as="geometry" />
        </mxCell>
        <mxCell id="DQLROcdRZPBVzseesoQG-5" style="edgeStyle=orthogonalEdgeStyle;rounded=0;orthogonalLoop=1;jettySize=auto;html=1;exitX=1;exitY=0.5;exitDx=0;exitDy=0;entryX=0;entryY=0.5;entryDx=0;entryDy=0;" edge="1" parent="1" source="nMN-DpjDkvB5x4g8xDvF-2" target="nMN-DpjDkvB5x4g8xDvF-7">
          <mxGeometry relative="1" as="geometry" />
        </mxCell>
        <mxCell id="nMN-DpjDkvB5x4g8xDvF-2" value="Read Joystick" style="rounded=1;whiteSpace=wrap;html=1;fontFamily=Verdana;fontStyle=1;fillColor=#dae8fc;strokeColor=#6c8ebf;strokeWidth=2;" parent="1" vertex="1">
          <mxGeometry x="450" y="250" width="120" height="30" as="geometry" />
        </mxCell>
        <mxCell id="nMN-DpjDkvB5x4g8xDvF-22" value="" style="edgeStyle=orthogonalEdgeStyle;rounded=0;orthogonalLoop=1;jettySize=auto;html=1;" parent="1" target="nMN-DpjDkvB5x4g8xDvF-3" edge="1">
          <mxGeometry relative="1" as="geometry">
            <mxPoint x="615" y="299" as="sourcePoint" />
          </mxGeometry>
        </mxCell>
        <mxCell id="DQLROcdRZPBVzseesoQG-24" style="edgeStyle=orthogonalEdgeStyle;rounded=0;orthogonalLoop=1;jettySize=auto;html=1;exitX=1;exitY=0.5;exitDx=0;exitDy=0;" edge="1" parent="1" source="nMN-DpjDkvB5x4g8xDvF-6">
          <mxGeometry relative="1" as="geometry">
            <mxPoint x="290" y="230" as="targetPoint" />
            <Array as="points">
              <mxPoint x="290" y="344" />
            </Array>
          </mxGeometry>
        </mxCell>
        <mxCell id="DQLROcdRZPBVzseesoQG-28" value="&lt;font style=&quot;font-size: 12px;&quot;&gt;Yes&lt;/font&gt;" style="edgeLabel;html=1;align=center;verticalAlign=middle;resizable=0;points=[];fontFamily=Verdana;fontStyle=1;fontSize=12;" vertex="1" connectable="0" parent="DQLROcdRZPBVzseesoQG-24">
          <mxGeometry x="0.1729" y="2" relative="1" as="geometry">
            <mxPoint y="13" as="offset" />
          </mxGeometry>
        </mxCell>
        <mxCell id="DQLROcdRZPBVzseesoQG-25" style="edgeStyle=orthogonalEdgeStyle;rounded=0;orthogonalLoop=1;jettySize=auto;html=1;exitX=0;exitY=0.5;exitDx=0;exitDy=0;" edge="1" parent="1" source="nMN-DpjDkvB5x4g8xDvF-6">
          <mxGeometry relative="1" as="geometry">
            <mxPoint x="130" y="230" as="targetPoint" />
          </mxGeometry>
        </mxCell>
        <mxCell id="DQLROcdRZPBVzseesoQG-27" value="No" style="edgeLabel;html=1;align=center;verticalAlign=middle;resizable=0;points=[];fontFamily=Verdana;fontStyle=1;fontSize=12;" vertex="1" connectable="0" parent="DQLROcdRZPBVzseesoQG-25">
          <mxGeometry x="0.3616" y="1" relative="1" as="geometry">
            <mxPoint y="25" as="offset" />
          </mxGeometry>
        </mxCell>
        <mxCell id="nMN-DpjDkvB5x4g8xDvF-6" value="Any&lt;br&gt;Changes" style="rhombus;whiteSpace=wrap;html=1;fontFamily=Verdana;fontStyle=1;fillColor=#dae8fc;strokeColor=#6c8ebf;strokeWidth=2;" parent="1" vertex="1">
          <mxGeometry x="151" y="298" width="120" height="92" as="geometry" />
        </mxCell>
        <mxCell id="DQLROcdRZPBVzseesoQG-11" style="edgeStyle=orthogonalEdgeStyle;rounded=0;orthogonalLoop=1;jettySize=auto;html=1;exitX=0.5;exitY=1;exitDx=0;exitDy=0;entryX=0.5;entryY=0;entryDx=0;entryDy=0;" edge="1" parent="1" source="nMN-DpjDkvB5x4g8xDvF-7" target="DQLROcdRZPBVzseesoQG-6">
          <mxGeometry relative="1" as="geometry">
            <Array as="points">
              <mxPoint x="660" y="290" />
              <mxPoint x="510" y="290" />
            </Array>
          </mxGeometry>
        </mxCell>
        <mxCell id="nMN-DpjDkvB5x4g8xDvF-7" value="No Changes" style="shape=parallelogram;perimeter=parallelogramPerimeter;whiteSpace=wrap;html=1;fixedSize=1;fillColor=#fff2cc;strokeColor=#d6b656;strokeWidth=2;fontFamily=Verdana;fontStyle=1" parent="1" vertex="1">
          <mxGeometry x="600" y="250.5" width="120" height="30" as="geometry" />
        </mxCell>
        <mxCell id="Y07600XxJGm9P2Pq43jB-8" value="" style="group" parent="1" vertex="1" connectable="0">
          <mxGeometry x="120" y="460" width="187" height="70" as="geometry" />
        </mxCell>
        <mxCell id="Y07600XxJGm9P2Pq43jB-1" value="" style="group" parent="Y07600XxJGm9P2Pq43jB-8" vertex="1" connectable="0">
          <mxGeometry y="40" width="170" height="30" as="geometry" />
        </mxCell>
        <mxCell id="Y07600XxJGm9P2Pq43jB-2" value="" style="whiteSpace=wrap;html=1;aspect=fixed;fillColor=#fff2cc;strokeColor=#d6b656;" parent="Y07600XxJGm9P2Pq43jB-1" vertex="1">
          <mxGeometry width="30" height="30" as="geometry" />
        </mxCell>
        <mxCell id="Y07600XxJGm9P2Pq43jB-3" value="&lt;div align=&quot;left&quot;&gt;&lt;font face=&quot;Verdana&quot;&gt;&lt;b&gt;&amp;nbsp;- packet content&lt;br&gt;&lt;/b&gt;&lt;/font&gt;&lt;/div&gt;" style="text;html=1;align=left;verticalAlign=middle;resizable=0;points=[];autosize=1;strokeColor=none;fillColor=none;" parent="Y07600XxJGm9P2Pq43jB-1" vertex="1">
          <mxGeometry x="30" width="140" height="30" as="geometry" />
        </mxCell>
        <mxCell id="Y07600XxJGm9P2Pq43jB-4" value="" style="group" parent="Y07600XxJGm9P2Pq43jB-8" vertex="1" connectable="0">
          <mxGeometry x="1" width="186" height="30" as="geometry" />
        </mxCell>
        <mxCell id="Y07600XxJGm9P2Pq43jB-5" value="" style="group" parent="Y07600XxJGm9P2Pq43jB-4" vertex="1" connectable="0">
          <mxGeometry width="186" height="30" as="geometry" />
        </mxCell>
        <mxCell id="Y07600XxJGm9P2Pq43jB-6" value="" style="whiteSpace=wrap;html=1;aspect=fixed;fillColor=#dae8fc;strokeColor=#6c8ebf;" parent="Y07600XxJGm9P2Pq43jB-5" vertex="1">
          <mxGeometry width="30" height="30" as="geometry" />
        </mxCell>
        <mxCell id="Y07600XxJGm9P2Pq43jB-7" value="&lt;div align=&quot;left&quot;&gt;&lt;font face=&quot;Verdana&quot;&gt;&lt;b&gt;&amp;nbsp;- executed in program&lt;/b&gt;&lt;/font&gt;&lt;/div&gt;" style="text;html=1;align=left;verticalAlign=middle;resizable=1;points=[];autosize=1;strokeColor=none;fillColor=none;movable=1;rotatable=1;deletable=1;editable=1;locked=0;connectable=1;" parent="Y07600XxJGm9P2Pq43jB-5" vertex="1">
          <mxGeometry x="30" width="156" height="30" as="geometry" />
        </mxCell>
        <mxCell id="DQLROcdRZPBVzseesoQG-1" value="&lt;font face=&quot;Verdana&quot;&gt;&lt;b&gt;Enter&lt;/b&gt;&lt;/font&gt;" style="text;html=1;align=center;verticalAlign=middle;resizable=0;points=[];autosize=1;strokeColor=none;fillColor=none;" vertex="1" parent="1">
          <mxGeometry x="480" y="198" width="60" height="30" as="geometry" />
        </mxCell>
        <mxCell id="DQLROcdRZPBVzseesoQG-9" style="edgeStyle=orthogonalEdgeStyle;rounded=0;orthogonalLoop=1;jettySize=auto;html=1;exitX=0.5;exitY=1;exitDx=0;exitDy=0;entryX=0.5;entryY=0;entryDx=0;entryDy=0;" edge="1" parent="1" source="DQLROcdRZPBVzseesoQG-2" target="DQLROcdRZPBVzseesoQG-6">
          <mxGeometry relative="1" as="geometry">
            <Array as="points">
              <mxPoint x="370" y="290" />
              <mxPoint x="510" y="290" />
            </Array>
          </mxGeometry>
        </mxCell>
        <mxCell id="DQLROcdRZPBVzseesoQG-2" value="Tilted" style="shape=parallelogram;perimeter=parallelogramPerimeter;whiteSpace=wrap;html=1;fixedSize=1;fillColor=#fff2cc;strokeColor=#d6b656;strokeWidth=2;fontFamily=Verdana;fontStyle=1" vertex="1" parent="1">
          <mxGeometry x="320" y="253" width="100" height="25" as="geometry" />
        </mxCell>
        <mxCell id="DQLROcdRZPBVzseesoQG-12" style="edgeStyle=orthogonalEdgeStyle;rounded=0;orthogonalLoop=1;jettySize=auto;html=1;exitX=1;exitY=0.5;exitDx=0;exitDy=0;entryX=0;entryY=0.5;entryDx=0;entryDy=0;" edge="1" parent="1" source="DQLROcdRZPBVzseesoQG-6" target="DQLROcdRZPBVzseesoQG-7">
          <mxGeometry relative="1" as="geometry" />
        </mxCell>
        <mxCell id="DQLROcdRZPBVzseesoQG-13" style="edgeStyle=orthogonalEdgeStyle;rounded=0;orthogonalLoop=1;jettySize=auto;html=1;exitX=0;exitY=0.5;exitDx=0;exitDy=0;entryX=1;entryY=0.5;entryDx=0;entryDy=0;" edge="1" parent="1" source="DQLROcdRZPBVzseesoQG-6" target="DQLROcdRZPBVzseesoQG-8">
          <mxGeometry relative="1" as="geometry" />
        </mxCell>
        <mxCell id="DQLROcdRZPBVzseesoQG-6" value="Read Buttons&lt;br&gt;to Move Link" style="rounded=1;whiteSpace=wrap;html=1;fontFamily=Verdana;fontStyle=1;fillColor=#dae8fc;strokeColor=#6c8ebf;strokeWidth=2;" vertex="1" parent="1">
          <mxGeometry x="450" y="310" width="120" height="40" as="geometry" />
        </mxCell>
        <mxCell id="DQLROcdRZPBVzseesoQG-16" style="edgeStyle=orthogonalEdgeStyle;rounded=0;orthogonalLoop=1;jettySize=auto;html=1;exitX=0.5;exitY=1;exitDx=0;exitDy=0;" edge="1" parent="1" source="DQLROcdRZPBVzseesoQG-7" target="DQLROcdRZPBVzseesoQG-14">
          <mxGeometry relative="1" as="geometry" />
        </mxCell>
        <mxCell id="DQLROcdRZPBVzseesoQG-7" value="No Changes" style="shape=parallelogram;perimeter=parallelogramPerimeter;whiteSpace=wrap;html=1;fixedSize=1;fillColor=#fff2cc;strokeColor=#d6b656;strokeWidth=2;fontFamily=Verdana;fontStyle=1" vertex="1" parent="1">
          <mxGeometry x="600" y="315" width="120" height="30" as="geometry" />
        </mxCell>
        <mxCell id="DQLROcdRZPBVzseesoQG-15" style="edgeStyle=orthogonalEdgeStyle;rounded=0;orthogonalLoop=1;jettySize=auto;html=1;exitX=0.5;exitY=1;exitDx=0;exitDy=0;" edge="1" parent="1" source="DQLROcdRZPBVzseesoQG-8" target="DQLROcdRZPBVzseesoQG-14">
          <mxGeometry relative="1" as="geometry" />
        </mxCell>
        <mxCell id="DQLROcdRZPBVzseesoQG-8" value="Pressed" style="shape=parallelogram;perimeter=parallelogramPerimeter;whiteSpace=wrap;html=1;fixedSize=1;fillColor=#fff2cc;strokeColor=#d6b656;strokeWidth=2;fontFamily=Verdana;fontStyle=1" vertex="1" parent="1">
          <mxGeometry x="320" y="317" width="100" height="25" as="geometry" />
        </mxCell>
        <mxCell id="DQLROcdRZPBVzseesoQG-20" style="edgeStyle=orthogonalEdgeStyle;rounded=0;orthogonalLoop=1;jettySize=auto;html=1;exitX=0;exitY=0.5;exitDx=0;exitDy=0;entryX=1;entryY=0.5;entryDx=0;entryDy=0;" edge="1" parent="1" source="DQLROcdRZPBVzseesoQG-14" target="DQLROcdRZPBVzseesoQG-17">
          <mxGeometry relative="1" as="geometry" />
        </mxCell>
        <mxCell id="DQLROcdRZPBVzseesoQG-21" style="edgeStyle=orthogonalEdgeStyle;rounded=0;orthogonalLoop=1;jettySize=auto;html=1;exitX=1;exitY=0.5;exitDx=0;exitDy=0;entryX=0;entryY=0.5;entryDx=0;entryDy=0;" edge="1" parent="1" source="DQLROcdRZPBVzseesoQG-14" target="DQLROcdRZPBVzseesoQG-19">
          <mxGeometry relative="1" as="geometry" />
        </mxCell>
        <mxCell id="DQLROcdRZPBVzseesoQG-14" value="Read Buttons&lt;br&gt;to Grasp" style="rounded=1;whiteSpace=wrap;html=1;fontFamily=Verdana;fontStyle=1;fillColor=#dae8fc;strokeColor=#6c8ebf;strokeWidth=2;" vertex="1" parent="1">
          <mxGeometry x="450" y="390" width="120" height="40" as="geometry" />
        </mxCell>
        <mxCell id="DQLROcdRZPBVzseesoQG-22" style="edgeStyle=orthogonalEdgeStyle;rounded=0;orthogonalLoop=1;jettySize=auto;html=1;exitX=0.5;exitY=1;exitDx=0;exitDy=0;entryX=0.5;entryY=1;entryDx=0;entryDy=0;" edge="1" parent="1" source="DQLROcdRZPBVzseesoQG-17" target="nMN-DpjDkvB5x4g8xDvF-6">
          <mxGeometry relative="1" as="geometry" />
        </mxCell>
        <mxCell id="DQLROcdRZPBVzseesoQG-17" value="Pressed" style="shape=parallelogram;perimeter=parallelogramPerimeter;whiteSpace=wrap;html=1;fixedSize=1;fillColor=#fff2cc;strokeColor=#d6b656;strokeWidth=2;fontFamily=Verdana;fontStyle=1" vertex="1" parent="1">
          <mxGeometry x="320" y="397.5" width="100" height="25" as="geometry" />
        </mxCell>
        <mxCell id="DQLROcdRZPBVzseesoQG-23" style="edgeStyle=orthogonalEdgeStyle;rounded=0;orthogonalLoop=1;jettySize=auto;html=1;exitX=0.5;exitY=1;exitDx=0;exitDy=0;entryX=0.5;entryY=1;entryDx=0;entryDy=0;" edge="1" parent="1" source="DQLROcdRZPBVzseesoQG-19" target="nMN-DpjDkvB5x4g8xDvF-6">
          <mxGeometry relative="1" as="geometry" />
        </mxCell>
        <mxCell id="DQLROcdRZPBVzseesoQG-19" value="No Changes" style="shape=parallelogram;perimeter=parallelogramPerimeter;whiteSpace=wrap;html=1;fixedSize=1;fillColor=#fff2cc;strokeColor=#d6b656;strokeWidth=2;fontFamily=Verdana;fontStyle=1" vertex="1" parent="1">
          <mxGeometry x="600" y="395" width="120" height="30" as="geometry" />
        </mxCell>
        <mxCell id="DQLROcdRZPBVzseesoQG-26" value="&lt;font face=&quot;Verdana&quot;&gt;&lt;b&gt;Exit&lt;/b&gt;&lt;/font&gt;" style="text;html=1;align=center;verticalAlign=middle;resizable=0;points=[];autosize=1;strokeColor=none;fillColor=none;" vertex="1" parent="1">
          <mxGeometry x="186" y="198" width="50" height="30" as="geometry" />
        </mxCell>
      </root>
    </mxGraphModel>
  </diagram>
</mxfile>
